<svg xmlns="http://www.w3.org/2000/svg" width="711.297" height="593.859" viewBox="0 0 711.297 593.859">
  <g id="Artboard" transform="translate(-443.277 -329.712)">
    <path id="Drawingpad_s" data-name="Drawingpad s" d="M0,210.58,362.949,0,626.76,230.81l-351.2,235.669Z" transform="translate(534.168 344.51) rotate(11)" fill="#fff" stroke="#4b4b4b" stroke-width="2" opacity="0.212"/>
    <path id="Drawingpad" d="M0,210.58,362.949,0,626.76,230.81l-351.2,235.669Z" transform="translate(537.488 331.233) rotate(11)" fill="#fff" stroke="#4b4b4b" stroke-width="2"/>
    <g id="pencil" transform="translate(938.18 467.141)">
      <g id="Group_4" data-name="Group 4" transform="translate(124.811) rotate(45)">
        <path id="Path_2" data-name="Path 2" d="M0,0V127.479l19.612,19.613,19.612-19.613V0Z" transform="translate(0 29.418)" fill="#ecf0f1"/>
        <path id="Path_3" data-name="Path 3" d="M0,0V147.091l19.612-19.613V0Z" transform="translate(19.612 29.418)" fill="#bdc3c7"/>
        <rect id="Rectangle_2" data-name="Rectangle 2" width="39.224" height="107.866" transform="translate(0 39.224)" fill="#e67e22"/>
        <path id="Path_4" data-name="Path 4" d="M19.612,0A19.638,19.638,0,0,0,0,19.612v9.806H39.224V19.612A19.638,19.638,0,0,0,19.612,0Z" transform="translate(0 0)" fill="#7f8c8d"/>
        <g id="Group_3" data-name="Group 3" transform="translate(5.825 162.78)">
          <path id="Path_5" data-name="Path 5" d="M0,0,13.787,13.728,27.575,0H0Z" transform="translate(0 0)" fill="#34495e"/>
          <path id="Path_6" data-name="Path 6" d="M0,0V13.728L13.787,0Z" transform="translate(13.787 0)" fill="#2c3e50"/>
        </g>
        <path id="Path_7" data-name="Path 7" d="M19.612,0A19.638,19.638,0,0,0,0,19.612v9.806H19.612Z" transform="translate(0 0)" fill="#95a5a6"/>
        <rect id="Rectangle_3" data-name="Rectangle 3" width="19.612" height="107.866" transform="translate(19.612 39.224)" fill="#d35400"/>
      </g>
    </g>
    <g id="Cherry" transform="translate(711.637 467.068)">
      <path id="Path_8" data-name="Path 8" d="M217.856,143.271c-13.088-17.18-34.593-28.789-48.407-27.57h-.377a15.091,15.091,0,0,0-7.226,2.438,22.172,22.172,0,0,0-6.675,8.706,22.143,22.143,0,0,1-3.889,5.8c-11.376-33.838-4.15-77.341-1.306-91.416,3.889-1.277,15.5-6.675,17.122-14.51l-1.422-.29,1.451.174c1.306-6.152,2.177-12.218-.406-14.772s-10.8-2.235-13.7-.348c-4.237,2.757-10.941,14.162-12.885,17.587-32.591-3.976-59.986,2.9-81.433,20.315-1.712,1.393-3.308,2.9-4.9,4.3l-.2.174h0A109.233,109.233,0,0,0,37.23,73.476a1.364,1.364,0,0,0-.29.377c-21.04,32.184-24.291,69.65-24.32,70.26v1.625h1.625a124.79,124.79,0,0,0,83-36.1,129.579,129.579,0,0,0-4.7,29.746c-10.419-3.337-22.114-6.007-31.923-.58-7.168,3.947-12.276,11.87-15.149,23.507-5.8,23.71-2.9,42.864,9.2,56.939,16.832,19.792,46,23.217,53.747,23.217h1.074c18.4-1.48,27.454-9.635,35.406-16.89a54.735,54.735,0,0,0,19.241,3.4,81.085,81.085,0,0,0,42.429-13.03h0C243.453,185.294,226.765,154.938,217.856,143.271ZM154.706,13.925c2-1.306,8.5-1.654,9.954-.174s1.074,5.282-.377,12.131v.145c-1.451,6.965-14.075,12.276-15.7,12.6h-1.045l-.2,1.045c-3.6,17.413-10.622,61.234,1.886,95.769h0c.406,1.277.871,2.525,1.335,3.744l.261.667c.377.987.784,1.944,1.219,2.9l.29.667.609,1.277.145.29c.638,1.248,1.277,2.467,1.973,3.686L151.195,150c-.842-2.09-2.641-6.7-4.614-13.03h0c-6.123-19.792-14.51-58.477-2.9-95.479l2.293-7.284-4.817,5.8c-1.886,2.293-4.179,5.34-6.646,8.706a214.06,214.06,0,0,0-22.694,39.933c-8.184,19.038-11.608,36.944-10.448,53.282h0l.232,2.554a30.075,30.075,0,0,0,.406,3.86l-.232.29-5.8,1.538c-.145-1.741-.348-4.788-.348-8.938a128.156,128.156,0,0,1,6.007-36.334A187.94,187.94,0,0,1,141.27,35.952l.348-.406v-.551a11.608,11.608,0,0,1,.726-3.744C143.65,28.813,150.934,16.363,154.706,13.925Zm-6.82,137.066-.406-.522a49.336,49.336,0,0,0-3.976-4.556h0l-1.393-1.335h0a28.033,28.033,0,0,0-4.208-3.221h.435l6.036-1.741v.261l.813,2.438v.261c.58,1.741,1.132,3.279,1.625,4.614l.232.609.377,1.016.377.958v.261c.435,1.132.784,1.973.958,2.38l.145.377h0l-.261-.348ZM92.6,146.115v5.6a15.787,15.787,0,0,1-7.371-.232,4.179,4.179,0,0,1-2.641-2.031c-.667-1.6-.2-2.206,0-2.409,1.19-1.6,5.8-1.828,8.706-1.48a1.422,1.422,0,0,0,.784-.145Zm12.131,1.016a15.535,15.535,0,0,0-.2-1.625v-.174a20.083,20.083,0,0,0,5.253-.958C108.128,145.216,106.59,146.115,104.732,147.131Zm27.193-8.213h-.2a34.245,34.245,0,0,0-19.705,1.886,25.713,25.713,0,0,1-7.633,1.683c-1.306-16.049,2.09-33.722,10.186-52.586a211.128,211.128,0,0,1,22.288-39.265l1.973-2.7c-8.59,34.622-1.219,69.447,4.585,88.63l-5.978,1.741-3.831,1.1ZM158.044,148c-.464-.755-.871-1.538-1.306-2.322a19.588,19.588,0,0,1,4.469.493,12.044,12.044,0,0,1-3.192,1.8ZM100.408,99.479c-.464,1.422-1.016,2.9-1.451,4.237A129.549,129.549,0,0,1,58.328,132.5C56.587,112.19,70.2,85.781,71.852,82.676A175.053,175.053,0,0,1,96.229,64.683C92.108,73.389,84.1,93.123,88.1,110.013a1.451,1.451,0,0,0,1.422,1.1h.348a1.451,1.451,0,0,0,1.074-1.741c-4.963-20.75,9.838-47.42,10.012-47.681h0A344.3,344.3,0,0,1,133.928,40.16c-.668.813-1.393,1.625-2.061,2.467s-1.306,1.741-1.973,2.612c-1.48,1.915-2.9,3.8-4.353,5.8-.784,1.074-1.48,2.177-2.206,3.25-1.19,1.741-2.438,3.483-3.57,5.253-.813,1.277-1.567,2.583-2.351,3.86s-1.973,3.163-2.9,4.759-1.538,2.9-2.293,4.237-1.654,2.9-2.438,4.527-1.422,2.9-2.119,4.527-1.422,2.9-2.06,4.353-1.277,3.134-1.915,4.7-1.19,2.9-1.741,4.3A36.72,36.72,0,0,0,100.408,99.479ZM39.2,75.8a131.522,131.522,0,0,0,44.17-6.181c-4.585,3.337-9.113,6.994-13.524,10.825a1.394,1.394,0,0,0-.348.319A413.024,413.024,0,0,0,16.19,138.8C17.989,127.513,23.445,99.972,39.2,75.8ZM65.96,87.812C61.288,97.97,53.627,117.53,55.426,133.723a121.336,121.336,0,0,1-38.279,8.706A426.377,426.377,0,0,1,65.961,87.812ZM60.65,51.565C77.6,37.809,98.377,30.873,122.725,30.873a140.753,140.753,0,0,1,16.4.987c0,.2,0,.435,0,.667v1.48c-15.352,6.646-54.791,13.9-73.945,17.413l-5.079.929ZM55.455,56.15c1.074-.261,5.166-1.016,9.9-1.886,15-2.757,42.342-7.778,61.147-13.059a320.985,320.985,0,0,0-28.44,19.067l-1.277.7A120.292,120.292,0,0,1,41.148,72.954a105.171,105.171,0,0,1,14.307-16.8Zm54.037,183.122c-4.121.377-35.435-2.06-52.528-22.172-11.318-13.234-14.22-31.517-8.706-54.24,2.67-10.825,7.313-18.109,13.727-21.65a23.507,23.507,0,0,1,11.608-2.757,63.3,63.3,0,0,1,18.922,3.8v.58a1.394,1.394,0,0,0-.377,0c-.9,0-8.706-.929-11.608,2.612a5.05,5.05,0,0,0-.319,5.282,6.82,6.82,0,0,0,4.411,3.686,15.265,15.265,0,0,0,4.788.7,32.446,32.446,0,0,0,16.078-4.992c10.651-6.269,20.112-9.49,24.552-8.5l2.9.842c7.749,2.177,19.3,16.745,23.449,34.187.348,1.451.667,3.134.929,4.9a44.9,44.9,0,0,1-13.872,41.268l-.493.464C135.611,230.073,126.9,237.967,109.492,239.273Zm95.45-25.887h0c-3.337,2.67-31.6,18.6-57.723,9.809l.377-.406.958-1.016,1.248-1.393.9-1.074,1.132-1.451.813-1.132.987-1.48.755-1.19.871-1.509.667-1.248.755-1.567.58-1.306c.232-.522.435-1.074.638-1.6l.493-1.335.522-1.654c.174-.551.29-.9.406-1.364s.29-1.132.406-1.683.2-.929.319-1.393.2-1.161.29-1.741.145-.958.232-1.422a14.94,14.94,0,0,1,.174-1.8,4.049,4.049,0,0,0,0-1.451v-6.675a9.086,9.086,0,0,0-.174-2.06,3.387,3.387,0,0,1,0-1.335c0-.435-.232-1.567-.348-2.322s0-.755-.174-1.132q-.319-1.741-.726-3.512c-.464-1.915-1.016-3.8-1.625-5.63l-.232-.726c-.609-1.741-1.277-3.424-1.973-5.079l-.377-.842q-1.1-2.438-2.322-4.7l-.348-.609c-.871-1.567-1.77-3.047-2.728-4.469h0l.987-.348c1.915-.464,10.651-2.7,13-5.8a2.38,2.38,0,0,0,.319-2.641c-1.016-1.915-5.253-2.235-9-2.148-.261-.522-.493-1.074-.726-1.625s-.726-1.683-1.074-2.5l-.2-1.132c-.261-.7-.522-1.393-.755-2.09a21.418,21.418,0,0,0,5.427-7.4,19.647,19.647,0,0,1,5.8-7.6,12.305,12.305,0,0,1,5.8-1.915c3.773,1.277,34.042,12.189,45.853,35.667a47.3,47.3,0,0,1,1.712,37.872,1.451,1.451,0,0,0,.9,1.857h.464a1.451,1.451,0,0,0,1.364-.987,50.119,50.119,0,0,0-1.712-40.194c-8.706-17.413-26.525-27.918-37.727-33.171a72.059,72.059,0,0,1,35.58,25.219c8.213,11.057,23.913,39.7-10.912,68.547Z" transform="translate(-12.62 -9.996)"/>
      <path id="Path_9" data-name="Path 9" d="M75.643,53.493a1.451,1.451,0,0,0-1.654,2.38c.2.145,21.5,15.323,22.317,36.131.464,12.131-6.094,23.884-19.473,34.825a1.453,1.453,0,1,0,1.857,2.235c14.133-11.608,21.04-24.2,20.547-37.292C98.308,69.658,76.571,54.161,75.643,53.493Z" transform="translate(103.039 72.324)"/>
      <path id="Path_10" data-name="Path 10" d="M86.216,81.343a73.278,73.278,0,0,1-17.645,3.976,1.451,1.451,0,0,0,0,2.9h.145a74.583,74.583,0,0,0,18.544-4.208,1.451,1.451,0,0,0-1.19-2.641Z" transform="translate(91.044 125.587)"/>
      <path id="Path_11" data-name="Path 11" d="M87.654,76.463a1.451,1.451,0,0,0-1.915.726,33.2,33.2,0,0,1-8.706,8.474,1.451,1.451,0,0,0,1.683,2.351c.784-.551,7.662-5.6,9.519-9.635a1.451,1.451,0,0,0-.58-1.915Z" transform="translate(108.934 116.188)"/>
      <path id="Path_12" data-name="Path 12" d="M50.121,121.654C20.636,107.433,29.371,65.237,29.458,64.8a1.483,1.483,0,1,0-2.9-.609c0,.435-9.287,44.866,22.259,60.073a1.421,1.421,0,0,0,.638,0,1.486,1.486,0,0,0,.638-2.9Z" transform="translate(11.462 90.848)"/>
      <path id="Path_13" data-name="Path 13" d="M71.463,111.4h.261a1.457,1.457,0,1,0,.261-2.9C35.07,102.082,30.427,74.86,30.253,73.7a1.467,1.467,0,1,0-2.9.435C27.409,74.454,32.371,104.577,71.463,111.4Z" transform="translate(15.368 108.795)"/>
      <path id="Path_14" data-name="Path 14" d="M40.706,85.915l-4.585-1.48a1.519,1.519,0,0,0-.9,2.9l4.585,1.48h.435a1.467,1.467,0,1,0,.435-2.9Z" transform="translate(28.335 131.463)"/>
      <path id="Path_15" data-name="Path 15" d="M54.137,88.58a29.2,29.2,0,0,1-14.51-2.467A1.451,1.451,0,0,0,38.321,88.7,31.923,31.923,0,0,0,51.5,91.6a27.737,27.737,0,0,0,2.9-.145,1.458,1.458,0,0,0-.29-2.9Z" transform="translate(34.928 134.573)"/>
      <path id="Path_16" data-name="Path 16" d="M80.676,89.626h.29A1.451,1.451,0,0,0,82.1,87.914C79.2,74.042,73.914,64.7,66.165,60.228a20.75,20.75,0,0,0-15.932-2.148,1.451,1.451,0,0,0,.9,2.757,17.993,17.993,0,0,1,13.582,1.915c6.994,4.063,11.9,12.711,14.51,25.742A1.451,1.451,0,0,0,80.676,89.626Z" transform="translate(57.116 80.099)"/>
      <path id="Path_17" data-name="Path 17" d="M62.614,71.162a1.451,1.451,0,0,0-1.335,1.567,47.362,47.362,0,0,1-2.467,18.864,1.451,1.451,0,0,0,2.67,1.132,49.336,49.336,0,0,0,2.67-20.315,1.451,1.451,0,0,0-1.538-1.248Z" transform="translate(75.062 106.341)"/>
      <path id="Path_18" data-name="Path 18" d="M16.148,71.817h.261a1.451,1.451,0,0,0,1.422-1.19c0-.2,3.6-19.5,9.722-27.57a1.46,1.46,0,1,0-2.322-1.77C18.673,49.993,15.1,69.292,14.958,70.1a1.451,1.451,0,0,0,1.19,1.712Z" transform="translate(-8.225 48.428)"/>
      <path id="Path_19" data-name="Path 19" d="M20.048,45.516a1.422,1.422,0,0,0,.638,0,1.451,1.451,0,0,0,1.306-.813L25.5,37.419a1.451,1.451,0,0,0-2.612-1.248L19.38,43.455a1.451,1.451,0,0,0,.667,2.06Z" transform="translate(-0.139 38.395)"/>
    </g>
  </g>
</svg>
